<?xml version="1.0" encoding="utf-8"?>
<!-- Generator: Adobe Illustrator 24.0.2, SVG Export Plug-In . SVG Version: 6.00 Build 0)  -->
<svg version="1.1" id="Capa_1" xmlns="http://www.w3.org/2000/svg" xmlns:xlink="http://www.w3.org/1999/xlink" x="0px" y="0px"
	 viewBox="0 0 512 512" style="enable-background:new 0 0 512 512;" xml:space="preserve">
<style type="text/css">
	.st0{fill:#036350;}
	.st1{fill:#CA1F58;}
	.st2{fill:#EAAC9D;}
	.st3{fill:#F1F1F4;}
	.st4{fill:#FFCBBE;}
	.st5{fill:#DFDDE2;}
	.st6{fill:#C6C1C8;}
	.st7{fill:#E2BCAF;}
	.st8{fill:#D3EFFB;}
	.st9{fill:#B1E4F9;}
	.st10{fill:#9E1B4D;}
	.st11{fill:#045142;}
</style>
<path class="st0" d="M319.4,47.7h14.4c18.2,0,33-14.8,33-33V7.5h-75.3c-8.2,0-15.5,5.2-18.2,12.9l-48,136.1h132.6L319.4,47.7z"/>
<path class="st1" d="M225.3,156.5L213.5,190h156.2l-11.8-33.5H225.3z"/>
<path class="st2" d="M374.4,233.2h-12.1l-1.2,15.6l10.5,28c10.6-4.2,18.1-14.5,18.1-26.6v-1.7C389.8,240.1,382.9,233.2,374.4,233.2
	L374.4,233.2z"/>
<path class="st2" d="M211.4,276.8l10.5-28l-1.2-15.6h-12.1c-8.5,0-15.4,6.9-15.4,15.4v1.7C193.4,262.3,200.9,272.6,211.4,276.8z"/>
<path class="st3" d="M355.5,296.1c-9-14.9-25.2-24-42.6-24h-42.6c-17.4,0-33.6,9.1-42.6,24l-3,5H261c10.3,0,20.6-1.4,30.5-4.1
	c10,2.7,20.2,4.1,30.5,4.1h36.4L355.5,296.1z"/>
<path class="st4" d="M322.1,301.1c-10.3,0-20.6-1.4-30.5-4.1c-10,2.7-20.2,4.1-30.5,4.1h-21.4l9.4,27.8c2.3,6.9,10.1,10.2,16.7,7.2
	l15.9-7.4c6.3-2.9,13.6-2.9,20,0l15.9,7.4c6.6,3.1,14.4-0.3,16.7-7.2l9.4-27.8H322.1z"/>
<path class="st4" d="M220.8,233.2l1.2,15.6l12.8,38c9.3-9.4,22-14.8,35.5-14.8h42.6c13.5,0,26.2,5.5,35.5,14.8l12.8-38l1.2-15.6
	L220.8,233.2z"/>
<path class="st5" d="M381.1,301.9l-20-53.1l-12.8,38c2.7,2.8,5.1,5.8,7.2,9.2l3,5h-15l-9.4,27.8c-2.3,6.9-10.1,10.2-16.7,7.2
	l-15.9-7.4c-6.3-2.9-13.6-2.9-20,0l-15.9,7.4c-6.6,3.1-14.4-0.3-16.7-7.2l-9.4-27.8h-15l3-5c2-3.4,4.5-6.5,7.2-9.2l-12.8-38
	l-20,53.1c-4.5,11.9-3.1,25.2,3.8,35.9l85.7,132.9l85.7-132.9C384.2,327.1,385.6,313.8,381.1,301.9L381.1,301.9z"/>
<path class="st6" d="M381.1,301.9l-20-53.1l-10.6,31.5l0.6,1.6c1.4,3.6,2.2,7.4,2.5,11.2c0.7,1,1.3,1.9,1.9,2.9l3,5h-5.2
	c-0.7,5.9-2.8,11.6-6.1,16.8L270,437.5l21.4,33.3l85.7-132.9C384.2,327.1,385.6,313.8,381.1,301.9L381.1,301.9z"/>
<path class="st1" d="M131.7,290.7H97.2c-6.6,0-11.9,5.3-11.9,11.9s5.3,11.9,11.9,11.9h34.4c6.6,0,11.9-5.3,11.9-11.9
	S138.2,290.7,131.7,290.7z"/>
<path class="st7" d="M100.8,314.5h27.3v190h-27.3V314.5z"/>
<path class="st8" d="M114.4,193c-27.5,0-49.8,22.3-49.8,49.8c0,22.8,15.4,42.1,36.3,48h27c21-5.9,36.3-25.1,36.3-48
	C164.2,215.3,141.9,193,114.4,193z"/>
<path class="st9" d="M125.2,194.1c5.7,8.1,9.1,18,9.1,28.6c0,0.6,0,1.3,0,1.9c-1,25.9-22.8,46.1-48.7,46.1h-2
	c-3.8,0-7.5-0.4-11.1-1.3c6.5,10.2,16.6,17.9,28.6,21.3h27c21-5.9,36.3-25.1,36.3-48C164.2,219,147.5,199,125.2,194.1z"/>
<path class="st0" d="M163.3,233.2h270L369.7,190H213.5l-52.3,35.5C162.1,227.9,162.8,230.5,163.3,233.2L163.3,233.2z"/>
<path class="st10" d="M342.8,178.9l13.3,9c0.9,0.6,1.7,1.3,2.5,2.1h11.1l-11.8-33.5H325C328.5,165.6,334.7,173.4,342.8,178.9
	L342.8,178.9z"/>
<path class="st11" d="M369.7,190h-11.1c7.9,8.3,2.3,23.2-10.2,23.2H179.3l-18.1,12.3c0.9,2.5,1.6,5.1,2.2,7.7h270L369.7,190z"/>
<path class="st11" d="M324.3,7.5c-5,11.9-16.8,20.2-30.4,20.2c-7,0-12,7-9.6,13.6c0,0,40.5,114.7,40.7,115.2h32.9L319.4,47.7h14.4
	c18.2,0,33-14.8,33-33V7.5H324.3z"/>
<path class="st0" d="M448.6,411c-5-27.6-29.1-47.7-57.2-47.7h-30.6l-69.3,107.4l-69.3-107.4h-30.6c-28.1,0-52.1,20.1-57.2,47.7
	l-6.4,35.1v58.4h337.5L448.6,411z"/>
<path class="st11" d="M448.6,411c-4.8-26.3-26.8-45.8-53.2-47.6c6.6,7.6,11.3,17.1,13.2,27.6l6.2,33.8c5.7,31-18.2,59.6-49.7,59.6
	h-237v20h337.5L448.6,411z"/>
<path d="M82.3,290.2c-9.4,11.2-3.3,28.4,10.9,31.3v9.1c0,4.1,3.4,7.5,7.5,7.5s7.5-3.4,7.5-7.5V322h12.3v175h-12.3V365.6
	c0-4.1-3.4-7.5-7.5-7.5s-7.5,3.4-7.5,7.5v138.9c0,4.1,3.4,7.5,7.5,7.5h364.9c4.7,0,8.2-4.2,7.4-8.8l-17-93.5
	c-5.7-31.2-32.8-53.9-64.6-53.9h-16.8l9-13.9c8.1-12.6,9.8-28.6,4.6-42.6l-7.1-18.9c10-6.6,16.2-17.8,16.2-30.2c0-3.1,0-5.7-1.4-9.6
	h37.5c3.3,0,6.2-2.1,7.2-5.3s-0.2-6.6-3-8.4L376,185.1c-16.1-45.5-29.8-84.5-45.9-130h3.8c22.4,0,40.5-18.2,40.5-40.5V7.5
	c0-4.1-3.4-7.5-7.5-7.5h-75.3c-11.4,0-21.5,7.2-25.3,17.9c-25.2,71.5-31.3,88.6-59,167.3l-43,29.2c-9.9-17.2-28.5-28.9-49.7-28.9
	c-31.6,0-57.3,25.7-57.3,57.3C57.1,262.1,66.9,279.8,82.3,290.2z M97.2,307c-2.4,0-4.4-2-4.4-4.4s2-4.4,4.4-4.4h34.4
	c2.4,0,4.4,2,4.4,4.4s-2,4.4-4.4,4.4C120.1,307,107.2,307,97.2,307z M371,333.8c-2.7,4.2-21.2,32.8-26.5,41.1
	c-2.2,3.5-1.2,8.1,2.2,10.4c3.5,2.2,8.1,1.2,10.4-2.2l7.8-12.1h26.5c24.5,0,45.4,17.5,49.8,41.5l15.4,84.6h-53.4l-7.8-49.1
	c-0.6-4.1-4.5-6.9-8.6-6.2c-4.1,0.6-6.9,4.5-6.2,8.6l7.4,46.8H195l7.4-46.8c0.6-4.1-2.1-7.9-6.2-8.6c-4.1-0.6-7.9,2.1-8.6,6.2
	l-7.8,49.1h-44.3v-50.2l6.3-34.4c4.4-24.1,25.3-41.5,49.8-41.5h26.5c70.7,109.6,67.3,104.6,68.6,105.8c3.2,2.6,7.8,2.1,10.5-1
	c0.5-0.5-2.3,3.6,40.1-62.1c2.2-3.5,1.2-8.1-2.2-10.4c-3.5-2.2-8.1-1.2-10.4,2.2l-14.1,21.8l16.5-63.2c1-4-1.4-8.1-5.4-9.2
	c-4-1-8.1,1.4-9.2,5.4l-21.2,80.9l-21.2-80.9c-1-4-5.1-6.4-9.2-5.4c-4,1-6.4,5.1-5.4,9.2l16.5,63.2c-4.7-7.3-42.2-65.4-60.3-93.5
	c-5.6-8.7-6.7-19.6-3.1-29.2l12.6-33.4l4.7,13.9c-3.4,4.1-5,6.9-8.1,12.1c-3,5,0.6,11.4,6.4,11.4h9.6l7.7,22.7
	c3.8,11.2,16.4,16.5,27,11.6l15.9-7.4c4.3-2,9.3-2,13.6,0l15.9,7.4c10.6,4.9,23.2-0.4,27-11.6l7.7-22.7h9.6c5.8,0,9.4-6.4,6.4-11.4
	c-3.1-5.1-4.7-8.1-8.1-12.1l4.7-13.9l12.6,33.4C377.7,314.2,376.5,325.1,371,333.8L371,333.8z M200.9,250.2v-1.7
	c0-4.3,3.5-7.9,7.9-7.9h5.1l0.5,7.1l-6.8,18C203.4,261.8,200.9,256.3,200.9,250.2L200.9,250.2z M312.9,279.5
	c12.1,0,23.6,5.3,31.5,14.1c-8.4,0-17.6,0-22.3,0c-9.6,0-19.3-1.3-28.6-3.8c-1.3-0.4-2.6-0.4-3.9,0c-9.3,2.5-18.9,3.8-28.6,3.8
	c-4.6,0-13.8,0-22.3,0c8-8.8,19.4-14.1,31.5-14.1H312.9z M261,308.6c10.3,0,20.6-1.3,30.5-3.8c17.1,4.3,28.8,3.8,41.5,3.8l-6,17.9
	c-0.9,2.7-3.9,4-6.5,2.8l-15.9-7.4c-8.4-3.9-17.9-3.9-26.3,0l-15.9,7.4c-2.5,1.2-5.6-0.1-6.5-2.8l-6-17.9H261L261,308.6z
	 M353.7,247.3l-9.1,26.9c-9.3-6.2-20.4-9.7-31.8-9.7h-4.2c0.2-1.6,0.1-0.6,0.1-23.8h45.4L353.7,247.3z M293.8,262.2
	c0,1.3-1,2.3-2.3,2.3h-21.3c-11.4,0-22.5,3.5-31.8,9.7l-9.1-26.9l-0.5-6.6h64.9L293.8,262.2L293.8,262.2z M382.3,248.5v1.7
	c0,6-2.5,11.6-6.7,15.5l-6.8-18l0.5-7.1h5.1C378.7,240.7,382.3,244.2,382.3,248.5L382.3,248.5z M280.4,22.9
	c1.7-4.7,6.2-7.9,11.2-7.9h67.8c-0.2,13.9-11.6,25.2-25.5,25.2h-9.1l-3-8.6c-1.4-3.9-5.7-6-9.6-4.6s-6,5.7-4.6,9.6
	c7.9,22.5,30.4,86.1,39.7,112.4H337c-4.1,0-7.5,3.4-7.5,7.5s3.4,7.5,7.5,7.5h15.6l6.5,18.5h-135l6.5-18.5h71.3
	c4.1,0,7.5-3.4,7.5-7.5s-3.4-7.5-7.5-7.5h-66L280.4,22.9z M215.8,197.5h151.6l41.6,28.2c-79,0-189.6,0-234.7,0L215.8,197.5z
	 M187.3,240.7c-1.4,3.9-1.4,6.8-1.4,9.6c0,12.4,6.2,23.6,16.2,30.2l-7.1,18.9c-5.3,14.1-3.6,30,4.6,42.6l9,13.9h-16.8
	c-23.5,0-44.5,12.4-56.1,31.5v-65.8c14.2-3,20.3-20.1,10.9-31.3c16.1-11,25.9-29.6,25.2-49.6L187.3,240.7L187.3,240.7z M114.4,200.5
	c23.3,0,42.3,19,42.3,42.3c0,18.6-12.2,35.1-29.9,40.5H102c-17.7-5.4-29.9-21.9-29.9-40.5C72.1,219.4,91.1,200.5,114.4,200.5z"/>
<path d="M114.4,225.5c9.5,0,17.3,7.8,17.3,17.3c0,4.1,3.4,7.5,7.5,7.5s7.5-3.4,7.5-7.5c0-17.8-14.5-32.3-32.3-32.3
	c-4.1,0-7.5,3.4-7.5,7.5S110.3,225.5,114.4,225.5z"/>
<path d="M114.4,170.5c4.1,0,7.5-3.4,7.5-7.5v-16.5c0-4.1-3.4-7.5-7.5-7.5s-7.5,3.4-7.5,7.5V163C106.9,167.1,110.3,170.5,114.4,170.5
	z"/>
<path d="M52.7,191.6c2.9,2.9,7.7,2.9,10.6,0s2.9-7.7,0-10.6l-11.6-11.6c-2.9-2.9-7.7-2.9-10.6,0s-2.9,7.7,0,10.6L52.7,191.6z"/>
<path d="M176.2,191.6l11.6-11.6c2.9-2.9,2.9-7.7,0-10.6c-2.9-2.9-7.7-2.9-10.6,0L165.6,181c-2.9,2.9-2.9,7.7,0,10.6
	C168.5,194.6,173.2,194.6,176.2,191.6z"/>
</svg>
